<?xml version="1.0" encoding="UTF-8" standalone="no"?>
<svg width="800" height="400" viewBox="0 0 800 400" xmlns="http://www.w3.org/2000/svg">
  <!-- Simplified world map with country outlines -->
  <g>
    <!-- North America -->
    <path d="M170,120 L190,80 L230,60 L280,70 L310,80 L340,90 L330,110 L310,130 L300,150 L280,160 L270,170 L260,180 L240,190 L220,180 L210,170 L200,160 L190,150 L180,140 L170,120 Z" />
    
    <!-- South America -->
    <path d="M230,190 L240,210 L250,230 L260,250 L270,270 L260,290 L240,300 L220,310 L200,300 L190,280 L210,250 L220,220 L230,190 Z" />
    
    <!-- Europe -->
    <path d="M410,80 L430,70 L450,80 L480,90 L460,100 L440,110 L420,120 L400,110 L380,100 L390,90 L410,80 Z" />
    
    <!-- Africa -->
    <path d="M410,130 L430,150 L450,170 L470,190 L460,210 L440,230 L420,250 L400,260 L380,240 L370,220 L360,200 L380,180 L400,160 L410,130 Z" />
    
    <!-- Asia -->
    <path d="M490,80 L520,70 L550,80 L580,90 L610,100 L620,120 L610,140 L590,160 L570,180 L550,200 L530,180 L510,160 L490,140 L480,120 L490,100 L490,80 Z" />
    
    <!-- Russia -->
    <path d="M490,80 L520,70 L550,60 L580,50 L610,40 L640,50 L670,60 L650,80 L630,90 L610,100 L590,90 L570,80 L550,70 L530,70 L510,70 L490,80 Z" />
    
    <!-- Australia -->
    <path d="M650,240 L670,230 L690,240 L680,260 L660,270 L640,260 L650,240 Z" />
    
    <!-- Antarctica -->
    <path d="M390,380 L410,370 L430,360 L450,350 L470,360 L490,370 L470,380 L450,390 L430,390 L410,390 L390,380 Z" />
    
    <!-- Additional details for better visual -->
    
    <!-- United Kingdom -->
    <path d="M400,90 L405,85 L410,90 L405,95 L400,90 Z" />
    
    <!-- Japan -->
    <path d="M650,120 L655,115 L660,120 L655,125 L650,120 Z" />
    
    <!-- Indonesia -->
    <path d="M600,200 L610,205 L620,200 L630,205 L620,210 L610,215 L600,210 L590,205 L600,200 Z" />
    
    <!-- New Zealand -->
    <path d="M700,300 L705,295 L710,300 L705,305 L700,300 Z" />
    
    <!-- India -->
    <path d="M550,150 L560,145 L570,150 L560,165 L550,170 L540,165 L550,150 Z" />
  </g>
</svg>